HIERARCHY
ROOT joint_Root
{
  OFFSET 0 0 0
  CHANNELS 6 Xposition Yposition Zposition Zrotation Xrotation Yrotation
  JOINT Hips
  {
    OFFSET 0 93.9241 -3
    CHANNELS 6 Xposition Yposition Zposition Zrotation Xrotation Yrotation
    JOINT Spine
    {
      OFFSET 15.7357 0 0
      CHANNELS 6 Xposition Yposition Zposition Zrotation Xrotation Yrotation
      JOINT Chest
      {
        OFFSET 8.98455 -0.406207 0
        CHANNELS 6 Xposition Yposition Zposition Zrotation Xrotation Yrotation
        JOINT Neck
        {
          OFFSET 16.3773 0 0
          CHANNELS 6 Xposition Yposition Zposition Zrotation Xrotation Yrotation
          JOINT Head
          {
            OFFSET 6.45672 0 0
            CHANNELS 6 Xposition Yposition Zposition Zrotation Xrotation Yrotation
            End Site
            {
              OFFSET 0 0 0
            }
          }
        }
        JOINT Shoulder_L
        {
          OFFSET 12.9942 -0.242716 4.98039
          CHANNELS 6 Xposition Yposition Zposition Zrotation Xrotation Yrotation
          JOINT UpperArm_L
          {
            OFFSET 5.34809 0 0
            CHANNELS 6 Xposition Yposition Zposition Zrotation Xrotation Yrotation
            JOINT LowerArm_L
            {
              OFFSET 24.3286 1.87007e-05 0
              CHANNELS 6 Xposition Yposition Zposition Zrotation Xrotation Yrotation
              JOINT Hand_L
              {
                OFFSET 22.2916 0 0
                CHANNELS 6 Xposition Yposition Zposition Zrotation Xrotation Yrotation
                End Site
                {
                  OFFSET 0 0 0
                }
              }
            }
          }
        }
        JOINT Shoulder_R
        {
          OFFSET 12.9945 -0.242716 -4.98039
          CHANNELS 6 Xposition Yposition Zposition Zrotation Xrotation Yrotation
          JOINT UpperArm_R
          {
            OFFSET -5.34813 0 0
            CHANNELS 6 Xposition Yposition Zposition Zrotation Xrotation Yrotation
            JOINT LowerArm_R
            {
              OFFSET -24.3289 0.000322201 0
              CHANNELS 6 Xposition Yposition Zposition Zrotation Xrotation Yrotation
              JOINT Hand_R
              {
                OFFSET -22.2915 -0.000108084 0
                CHANNELS 6 Xposition Yposition Zposition Zrotation Xrotation Yrotation
                End Site
                {
                  OFFSET 0 0 0
                }
              }
            }
          }
        }
      }
    }
    JOINT UpperLeg_L
    {
      OFFSET -2.19248 -6.46944 0
      CHANNELS 6 Xposition Yposition Zposition Zrotation Xrotation Yrotation
      JOINT LowerLeg_L
      {
        OFFSET 39.0811 0 -1.23785e-05
        CHANNELS 6 Xposition Yposition Zposition Zrotation Xrotation Yrotation
        JOINT Foot_L
        {
          OFFSET 40.9854 0 -1.26872e-05
          CHANNELS 6 Xposition Yposition Zposition Zrotation Xrotation Yrotation
          JOINT Toes_L
          {
            OFFSET 11.7543 0 0
            CHANNELS 6 Xposition Yposition Zposition Zrotation Xrotation Yrotation
            End Site
            {
              OFFSET 0 0 0
            }
          }
        }
      }
    }
    JOINT UpperLeg_R
    {
      OFFSET -2.19251 6.46944 0
      CHANNELS 6 Xposition Yposition Zposition Zrotation Xrotation Yrotation
      JOINT LowerLeg_R
      {
        OFFSET -39.0811 -0.00228153 -0.0401928
        CHANNELS 6 Xposition Yposition Zposition Zrotation Xrotation Yrotation
        JOINT Foot_R
        {
          OFFSET -40.9854 0 0
          CHANNELS 6 Xposition Yposition Zposition Zrotation Xrotation Yrotation
          JOINT Toes_R
          {
            OFFSET -11.7543 0 0
            CHANNELS 6 Xposition Yposition Zposition Zrotation Xrotation Yrotation
            End Site
            {
              OFFSET 0 0 0
            }
          }
        }
      }
    }
  }
}
MOTION
Frames:	8
Frame Time:	0.0333333
0 0 0 0 0 -0 -149.532 83.3083 -391.797 84.6439 -5.7369 -8.60783 15.7357 5.1072e-06 -5.51764e-07 126.773 85.9842 -123.54 8.98455 -0.406207 -4.3199e-07 -1.45363 4.54718 6.52423 16.3773 -1.3905e-06 -6.99897e-07 -11.4355 6.32738 -3.32012 6.45672 -1.25837e-06 -1.02172e-07 4.01545 1.34257 -7.20983 12.9942 -0.242716 4.98039 -89.6541 -1.64115 -93.1185 5.34809 -7.22636e-06 -6.2814e-07 -82.627 7.18582 39.3653 24.3286 1.87007e-05 4.90208e-06 28.7254 1.69739 -86.9119 22.2916 -9.88446e-07 4.63217e-06 22.7354 4.94062 8.55775 12.9945 -0.242716 -4.98039 89.8176 6.54595 -103.405 -5.34813 -1.25947e-06 -3.79883e-06 -63.4162 5.05782 4.48785 -24.3289 0.000322201 -8.65921e-06 9.55375 -1.66259 -99.7681 -22.2915 -0.000108084 -4.47941e-06 70.5318 5.66686 -16.8591 -2.19248 -6.46944 -1.22533e-07 -175.41 -0.94129 -34.4773 39.0811 -6.73843e-06 -1.23785e-05 -0.941496 -0.120933 96.3134 40.9854 -6.48686e-06 -1.26872e-05 15.0559 -9.67039 -35.323 11.7543 -2.30145e-07 3.05095e-06 0.483411 -0.59135 -22.1439 -2.19251 6.46944 -1.45247e-06 -167.254 1.597 167.28 -39.0811 -0.00228153 -0.0401928 -0.00674727 0.0629843 44.0225 -40.9854 7.72618e-06 5.99936e-06 5.30554 -5.99336 -89.791 -11.7543 -5.6619e-06 -5.58687e-06 0.161217 -0.170653 -17.8808 
0 0 0 0 0 -0 -148.841 85.4343 -384.94 89.5696 -5.14002 -10.099 15.7357 5.1072e-06 -5.51765e-07 155.639 84.1581 -154.865 8.98455 -0.406207 -4.3199e-07 -3.04142 10.566 1.83291 16.3773 -1.3905e-06 -6.99897e-07 -11.6494 3.56843 -2.72554 6.45672 -1.25837e-06 -1.02172e-07 3.83297 -4.72899 -6.07573 12.9942 -0.242716 4.98039 -88.8882 -4.73578 -91.7756 5.34809 -7.22636e-06 -6.2814e-07 -80.1892 8.01065 41.9775 24.3286 1.87007e-05 4.90208e-06 27.7433 -0.769298 -91.4585 22.2916 -9.88446e-07 4.63217e-06 23.0429 4.88525 9.66627 12.9945 -0.242716 -4.98039 90.0141 4.48084 -105.188 -5.34813 -1.25947e-06 -3.79883e-06 -66.9429 -1.87059 3.70476 -24.3289 0.000322201 -8.65921e-06 8.45976 -2.18325 -104.375 -22.2915 -0.000108084 -4.47941e-06 68.0403 5.67166 -17.6265 -2.19248 -6.46944 -1.22533e-07 178.461 4.7378 -42.0639 39.0811 -6.73843e-06 -1.23785e-05 -0.795525 -0.0549293 92.8476 40.9854 -6.48686e-06 -1.26872e-05 12.4488 -11.0632 -44.3678 11.7543 -2.30145e-07 3.05095e-06 0.444524 -0.53921 -21.6703 -2.19251 6.46944 -1.45247e-06 -172.719 -0.0716902 174.761 -39.0811 -0.00228153 -0.0401928 0.141119 -0.161397 33.0124 -40.9854 7.72618e-06 5.99936e-06 4.55515 -7.72668 -83.0371 -11.7543 -5.6619e-06 -5.58687e-06 0.0499449 -1.05086 -21.556 
0 0 0 0 0 -0 -148.027 88.4923 -377.862 94.9681 -3.93576 -12.5237 15.7357 5.1072e-06 -5.51765e-07 165.039 82.2931 -166.857 8.98455 -0.406207 -4.3199e-07 -3.60409 15.063 -3.17715 16.3773 -1.3905e-06 -6.99897e-07 -12.2035 1.27592 -2.53501 6.45672 -1.25837e-06 -1.02172e-07 2.86036 -10.2279 -5.00002 12.9942 -0.242716 4.98039 -88.3609 -6.28527 -90.353 5.34809 -7.22636e-06 -6.2814e-07 -76.6646 7.96857 42.786 24.3286 1.87007e-05 4.90208e-06 29.8292 -3.88422 -96.7371 22.2916 -9.88446e-07 4.63217e-06 23.716 4.81586 11.0166 12.9945 -0.242716 -4.98039 90.0739 1.95837 -107.173 -5.34813 -1.25947e-06 -3.79883e-06 -69.885 -7.14054 4.91487 -24.3289 0.000322201 -8.65921e-06 5.78248 -1.94228 -108.51 -22.2915 -0.000108084 -4.47941e-06 65.9866 5.66644 -16.7919 -2.19248 -6.46944 -1.22533e-07 172.944 11.1473 -46.2548 39.0811 -6.73843e-06 -1.23785e-05 -0.557479 0.0705359 81.5175 40.9854 -6.48686e-06 -1.26872e-05 12.396 -13.1636 -49.3946 11.7543 -2.30144e-07 3.05095e-06 0.469411 -0.572453 -21.9727 -2.19251 6.46944 -1.45247e-06 -178.258 0.0236925 178.898 -39.0811 -0.00228153 -0.0401928 0.0790523 -0.128453 23.8311 -40.9854 7.72618e-06 5.99936e-06 7.01735 -10.7446 -65.002 -11.7543 -5.6619e-06 -5.58687e-06 0.466122 -3.16001 -34.2916 
0 0 0 0 0 -0 -147.788 91.5127 -370.683 97.2492 -2.39485 -14.6322 15.7357 5.1072e-06 -5.51765e-07 169.556 81.0389 -172.837 8.98455 -0.406207 -4.3199e-07 -4.09086 17.9509 -5.96072 16.3773 -1.3905e-06 -6.99897e-07 -12.7448 -0.396684 -2.33619 6.45672 -1.25837e-06 -1.02172e-07 1.67721 -14.5216 -3.64487 12.9942 -0.242716 4.98039 -88.0852 -6.49367 -88.5309 5.34809 -7.22636e-06 -6.2814e-07 -72.9065 7.08173 43.4527 24.3286 1.87007e-05 4.90208e-06 28.4754 -6.43792 -101.683 22.2916 -9.88446e-07 4.63217e-06 23.9251 4.78788 11.5449 12.9945 -0.242716 -4.98039 90.0398 0.746372 -108.056 -5.34813 -1.25947e-06 -3.79883e-06 -71.978 -8.59229 7.79534 -24.3289 0.000322201 -8.65921e-06 5.66568 -2.10004 -110.272 -22.2915 -0.000108084 -4.47941e-06 62.2523 5.65765 -15.7235 -2.19248 -6.46944 -1.22534e-07 171.864 15.9721 -46.3585 39.0811 -6.73843e-06 -1.23785e-05 -0.297876 0.130955 64.9205 40.9854 -6.48686e-06 -1.26872e-05 12.7434 -15.8626 -53.1101 11.7543 -2.30145e-07 3.05095e-06 0.454737 -0.552796 -21.794 -2.19251 6.46944 -1.45247e-06 179.421 5.07869 -178.902 -39.0811 -0.00228153 -0.0401928 0.00928267 0.00594933 17.4205 -40.9854 7.72618e-06 5.99936e-06 12.6132 -9.38194 -42.9948 -11.7543 -5.6619e-06 -5.58687e-06 2.55083 -4.50892 -45.646 
0 0 0 0 0 -0 -148.29 93.6397 -363.176 95.7184 0.362003 -14.9776 15.7357 5.1072e-06 -5.51765e-07 171.541 80.6218 -174.643 8.98455 -0.406207 -4.3199e-07 -4.61387 18.8695 -5.48411 16.3773 -1.3905e-06 -6.99897e-07 -13.6562 -1.62557 -2.21992 6.45672 -1.25837e-06 -1.02172e-07 1.37203 -17.3523 -2.0335 12.9942 -0.242716 4.98039 -87.9873 -6.18834 -86.9424 5.34809 -7.22636e-06 -6.2814e-07 -70.5834 4.94594 44.5082 24.3286 1.87007e-05 4.90207e-06 24.8095 -7.71041 -106.188 22.2916 -9.88446e-07 4.63217e-06 25.0051 4.78448 11.6041 12.9945 -0.242716 -4.98039 90.0405 0.784547 -107.955 -5.34813 -1.25947e-06 -3.79883e-06 -73.7224 -6.61108 11.1725 -24.3289 0.000322201 -8.65921e-06 8.37547 -2.9082 -109.024 -22.2915 -0.000108084 -4.47941e-06 57.6209 5.66051 -16.1449 -2.19248 -6.46944 -1.22534e-07 174.885 18.2529 -41.3552 39.0811 -6.73843e-06 -1.23785e-05 -0.0769034 0.072641 44.8712 40.9854 -6.48686e-06 -1.26872e-05 10.6592 -10.7176 -57.8218 11.7543 -2.30145e-07 3.05095e-06 0.452378 -0.549682 -21.7656 -2.19251 6.46944 -1.45247e-06 -178.709 11.0341 -177.428 -39.0811 -0.00228153 -0.0401928 -0.0146421 0.0864109 15.9187 -40.9854 7.72618e-06 5.99936e-06 12.6076 -8.23629 -26.3108 -11.7543 -5.6619e-06 -5.58687e-06 2.00493 -2.96944 -36.5784 
0 0 0 0 0 -0 -149.211 94.25 -355.386 92.5873 3.58357 -13.539 15.7357 5.1072e-06 -5.51765e-07 171.955 80.8594 -173.923 8.98455 -0.406207 -4.3199e-07 -5.02468 18.3011 -3.15506 16.3773 -1.3905e-06 -6.99897e-07 -13.535 -2.58354 -2.08456 6.45672 -1.25837e-06 -1.02172e-07 0.518852 -18.9792 -0.884684 12.9942 -0.242716 4.98039 -88.0752 -5.64657 -86.1421 5.34809 -7.22636e-06 -6.2814e-07 -70.6253 2.93877 45.8548 24.3286 1.87007e-05 4.90208e-06 24.3114 -9.39564 -109.866 22.2916 -9.88446e-07 4.63217e-06 29.1602 4.73951 12.425 12.9945 -0.242716 -4.98039 90.0362 0.823659 -107.516 -5.34813 -1.25947e-06 -3.79883e-06 -76.616 -2.79358 15.1623 -24.3289 0.000322201 -8.65921e-06 11.682 -3.24642 -105.325 -22.2915 -0.000108084 -4.47941e-06 55.2366 5.66928 -17.2692 -2.19248 -6.46944 -1.22534e-07 177.905 17.2356 -33.109 39.0811 -6.73843e-06 -1.23785e-05 0.00173139 -0.00160587 25.2284 40.9854 -6.48686e-06 -1.26872e-05 5.7926 -1.88697 -61.6186 11.7543 -2.30145e-07 3.05095e-06 0.454151 -0.55204 -21.7871 -2.19251 6.46944 -1.45247e-06 -174.707 13.1177 -177.297 -39.0811 -0.00228153 -0.0401928 -0.0091405 0.0628196 21.2749 -40.9854 7.72618e-06 5.99936e-06 9.68476 -11.3861 -18.7908 -11.7543 -5.6619e-06 -5.58687e-06 0.629567 -0.714731 -21.8755 
0 0 0 0 0 -0 -149.822 93.44 -347.498 90.7857 6.40084 -12.2789 15.7357 5.1072e-06 -5.51765e-07 171.554 81.5257 -172.815 8.98455 -0.406207 -4.3199e-07 -5.21119 16.8883 -1.76393 16.3773 -1.3905e-06 -6.99897e-07 -12.8773 -3.83647 -1.57507 6.45672 -1.25837e-06 -1.02172e-07 -1.13336 -19.656 -0.254685 12.9942 -0.242716 4.98039 -88.2889 -5.20666 -86.7795 5.34809 -7.22636e-06 -6.2814e-07 -73.3385 2.05411 45.9499 24.3286 1.87007e-05 4.90208e-06 24.0865 -10.6907 -112.539 22.2916 -9.88446e-07 4.63217e-06 37.8226 4.73974 12.4529 12.9945 -0.242716 -4.98039 90.0165 0.721903 -106.315 -5.34813 -1.25947e-06 -3.79883e-06 -80.3736 0.301186 19.4611 -24.3289 0.000322201 -8.65921e-06 15.795 -2.90962 -100.181 -22.2915 -0.000108084 -4.47941e-06 50.2331 5.66246 -16.4884 -2.19248 -6.46944 -1.22534e-07 178.412 14.6371 -27.5641 39.0811 -6.73843e-06 -1.23785e-05 -0.0114204 0.0509632 15.0784 40.9854 -6.48686e-06 -1.26872e-05 -0.823668 4.02811 -63.616 11.7543 -2.30144e-07 3.05095e-06 0.454386 -0.552336 -21.7898 -2.19251 6.46944 -1.45247e-06 -171.786 12.1729 -179.277 -39.0811 -0.00228153 -0.0401928 -0.0392621 0.103199 31.5486 -40.9854 7.72618e-06 5.99936e-06 6.59749 -13.3838 -21.8705 -11.7543 -5.6619e-06 -5.58687e-06 0.644693 -0.733639 -22.0101 
0 0 0 0 0 -0 -149.742 91.5335 -339.634 91.6325 9.66694 -10.4812 15.7357 5.1072e-06 -5.51764e-07 163.141 82.8101 -164.555 8.98455 -0.406207 -4.3199e-07 -3.4705 13.893 -2.41777 16.3773 -1.3905e-06 -6.99897e-07 -13.401 -5.07796 -1.50398 6.45672 -1.25837e-06 -1.02172e-07 -2.89007 -19.7691 1.33101 12.9942 -0.242716 4.98039 -88.8831 -3.60493 -87.7767 5.34809 -7.22636e-06 -6.2814e-07 -75.7853 3.2446 42.6872 24.3286 1.87007e-05 4.90208e-06 20.1823 -10.0888 -115.483 22.2916 -9.88446e-07 4.63217e-06 43.5937 4.83144 10.7357 12.9945 -0.242716 -4.98039 89.9781 1.22936 -103.999 -5.34813 -1.25947e-06 -3.79883e-06 -83.0093 1.13502 22.9232 -24.3289 0.000322201 -8.65921e-06 18.2749 -1.20718 -93.6574 -22.2915 -0.000108084 -4.47941e-06 44.4683 5.68059 -20.62 -2.19248 -6.46944 -1.22534e-07 174.153 12.4504 -27.6304 39.0811 -6.73843e-06 -1.23785e-05 0.16608 -0.351964 23.276 40.9854 -6.48686e-06 -1.26872e-05 7.19195 5.33658 -63.0555 11.7543 -2.30145e-07 3.05095e-06 0.46612 -0.568052 -21.9327 -2.19251 6.46944 -1.45247e-06 -172.989 13.9157 177.306 -39.0811 -0.00228153 -0.0401928 -0.0909127 0.117679 45.0749 -40.9854 7.72618e-06 5.99936e-06 7.46188 -14.2572 -23.7065 -11.7543 -5.6619e-06 -5.58687e-06 0.624344 -0.708212 -21.829 
